<svg width="1919" height="896" viewBox="0 0 1919 896" fill="none" xmlns="http://www.w3.org/2000/svg">
<path d="M561.091 -1180.26L-608.506 1115.2" stroke="#FD6721" stroke-opacity="0.06"/>
<path d="M610.096 -1155.29L-559.5 1140.17" stroke="#FD6721" stroke-opacity="0.06"/>
<path d="M659.102 -1130.32L-510.495 1165.14" stroke="#FD6721" stroke-opacity="0.06"/>
<path d="M708.107 -1105.35L-461.49 1190.11" stroke="#FD6721" stroke-opacity="0.06"/>
<path d="M757.112 -1080.38L-412.484 1215.08" stroke="#FD6721" stroke-opacity="0.06"/>
<path d="M806.118 -1055.41L-363.479 1240.05" stroke="#FD6721" stroke-opacity="0.06"/>
<path d="M855.123 -1030.44L-314.473 1265.02" stroke="#FD6721" stroke-opacity="0.06"/>
<path d="M904.128 -1005.47L-265.468 1289.99" stroke="#FD6721" stroke-opacity="0.06"/>
<path d="M953.134 -980.503L-216.463 1314.96" stroke="#FD6721" stroke-opacity="0.06"/>
<path d="M1002.14 -955.533L-167.457 1339.93" stroke="#FD6721" stroke-opacity="0.06"/>
<path d="M1051.14 -930.564L-118.452 1364.9" stroke="#FD6721" stroke-opacity="0.06"/>
<path d="M1100.15 -905.594L-69.4471 1389.87" stroke="#FD6721" stroke-opacity="0.06"/>
<path d="M1149.15 -880.625L-20.4417 1414.84" stroke="#FD6721" stroke-opacity="0.06"/>
<path d="M1198.16 -855.656L28.5637 1439.81" stroke="#FD6721" stroke-opacity="0.06"/>
<path d="M1247.17 -830.686L77.569 1464.78" stroke="#FD6721" stroke-opacity="0.06"/>
<path d="M1296.17 -805.717L126.574 1489.75" stroke="#FD6721" stroke-opacity="0.06"/>
<path d="M1345.18 -780.747L175.58 1514.72" stroke="#FD6721" stroke-opacity="0.06"/>
<path d="M1394.18 -755.778L224.585 1539.68" stroke="#FD6721" stroke-opacity="0.06"/>
<path d="M1443.19 -730.808L273.591 1564.65" stroke="#FD6721" stroke-opacity="0.06"/>
<path d="M1492.19 -705.839L322.596 1589.62" stroke="#FD6721" stroke-opacity="0.06"/>
<path d="M1541.2 -680.87L371.601 1614.59" stroke="#FD6721" stroke-opacity="0.06"/>
<path d="M1590.2 -655.9L420.606 1639.56" stroke="#FD6721" stroke-opacity="0.06"/>
<path d="M1639.21 -630.931L469.612 1664.53" stroke="#FD6721" stroke-opacity="0.06"/>
<path d="M1688.21 -605.961L518.617 1689.5" stroke="#FD6721" stroke-opacity="0.06"/>
<path d="M1737.22 -580.992L567.622 1714.47" stroke="#FD6721" stroke-opacity="0.06"/>
<path d="M1786.22 -556.022L616.628 1739.44" stroke="#FD6721" stroke-opacity="0.06"/>
<path d="M1835.23 -531.053L665.633 1764.41" stroke="#FD6721" stroke-opacity="0.06"/>
<path d="M1884.23 -506.083L714.638 1789.38" stroke="#FD6721" stroke-opacity="0.06"/>
<path d="M1933.24 -481.114L763.644 1814.35" stroke="#FD6721" stroke-opacity="0.06"/>
<path d="M1982.25 -456.144L812.649 1839.32" stroke="#FD6721" stroke-opacity="0.06"/>
<path d="M2031.25 -431.175L861.654 1864.29" stroke="#FD6721" stroke-opacity="0.06"/>
<path d="M2080.26 -406.205L910.66 1889.26" stroke="#FD6721" stroke-opacity="0.06"/>
<path d="M2129.26 -381.236L959.665 1914.23" stroke="#FD6721" stroke-opacity="0.06"/>
<path d="M2178.27 -356.266L1008.67 1939.2" stroke="#FD6721" stroke-opacity="0.06"/>
<path d="M2227.27 -331.297L1057.68 1964.17" stroke="#FD6721" stroke-opacity="0.06"/>
<path d="M2276.28 -306.328L1106.68 1989.13" stroke="#FD6721" stroke-opacity="0.06"/>
<path d="M2325.28 -281.358L1155.69 2014.1" stroke="#FD6721" stroke-opacity="0.06"/>
<path d="M2374.29 -256.389L1204.69 2039.07" stroke="#FD6721" stroke-opacity="0.06"/>
<path d="M2423.29 -231.419L1253.7 2064.04" stroke="#FD6721" stroke-opacity="0.06"/>
<path d="M2472.3 -206.45L1302.7 2089.01" stroke="#FD6721" stroke-opacity="0.06"/>
<path d="M2521.3 -181.48L1351.71 2113.98" stroke="#FD6721" stroke-opacity="0.06"/>
<path d="M2570.31 -156.511L1400.71 2138.95" stroke="#FD6721" stroke-opacity="0.06"/>
<path d="M2619.31 -131.541L1449.72 2163.92" stroke="#FD6721" stroke-opacity="0.06"/>
<path d="M2668.32 -106.572L1498.72 2188.89" stroke="#FD6721" stroke-opacity="0.06"/>
<path d="M460.523 -982.883L2567.75 90.8038" stroke="#FD6721" stroke-opacity="0.06"/>
<path d="M410.24 -884.196L2517.47 189.491" stroke="#FD6721" stroke-opacity="0.06"/>
<path d="M359.955 -785.508L2467.19 288.179" stroke="#FD6721" stroke-opacity="0.06"/>
<path d="M309.671 -686.821L2416.9 386.867" stroke="#FD6721" stroke-opacity="0.06"/>
<path d="M259.388 -588.133L2366.62 485.554" stroke="#FD6721" stroke-opacity="0.06"/>
<path d="M209.104 -489.445L2316.33 584.242" stroke="#FD6721" stroke-opacity="0.06"/>
<path d="M158.82 -390.758L2266.05 682.929" stroke="#FD6721" stroke-opacity="0.06"/>
<path d="M108.536 -292.07L2215.77 781.617" stroke="#FD6721" stroke-opacity="0.06"/>
<path d="M58.2524 -193.383L2165.48 880.304" stroke="#FD6721" stroke-opacity="0.06"/>
<path d="M7.96851 -94.6952L2115.2 978.992" stroke="#FD6721" stroke-opacity="0.06"/>
<path d="M-42.3157 3.99255L2064.91 1077.68" stroke="#FD6721" stroke-opacity="0.06"/>
<path d="M-92.5991 102.68L2014.63 1176.37" stroke="#FD6721" stroke-opacity="0.06"/>
<path d="M-142.883 201.368L1964.35 1275.05" stroke="#FD6721" stroke-opacity="0.06"/>
<path d="M-193.167 300.055L1914.06 1373.74" stroke="#FD6721" stroke-opacity="0.06"/>
<path d="M-243.451 398.743L1863.78 1472.43" stroke="#FD6721" stroke-opacity="0.06"/>
<path d="M-293.735 497.43L1813.5 1571.12" stroke="#FD6721" stroke-opacity="0.06"/>
<path d="M-344.019 596.118L1763.21 1669.81" stroke="#FD6721" stroke-opacity="0.06"/>
<path d="M-394.302 694.806L1712.93 1768.49" stroke="#FD6721" stroke-opacity="0.06"/>
<path d="M-444.586 793.494L1662.64 1867.18" stroke="#FD6721" stroke-opacity="0.06"/>
<path d="M-494.87 892.181L1612.36 1965.87" stroke="#FD6721" stroke-opacity="0.06"/>
</svg>
